<svg aria-hidden="true" style="position: absolute; width: 0; height: 0; overflow: hidden;" version="1.1" xmlns="http://www.w3.org/2000/svg" xmlns:xlink="http://www.w3.org/1999/xlink">
<defs>
<symbol id="icon-gift" viewBox="0 0 32 32">
<path d="M0 0h32v32h-32v-32z"></path>
</symbol>
<symbol id="icon-phone" viewBox="0 0 32 32">
<path d="M0 0h32v32h-32v-32z"></path>
</symbol>
<symbol id="icon-apple" viewBox="0 0 32 32">
<path fill="#fff" style="fill: var(--color1, #fff)" d="M23.169 16.759c-0.012-2.186 0.931-3.833 2.835-5.048-1.065-1.602-2.677-2.484-4.801-2.654-2.011-0.167-4.212 1.231-5.017 1.231-0.851 0-2.799-1.173-4.331-1.173-3.162 0.051-6.522 2.647-6.522 7.929 0 1.561 0.272 3.173 0.815 4.833 0.726 2.186 3.345 7.541 6.077 7.455 1.428-0.035 2.438-1.064 4.297-1.064 1.804 0 2.738 1.064 4.331 1.064 2.756-0.042 5.124-4.91 5.814-7.102-3.696-1.83-3.498-5.359-3.498-5.471zM19.961 6.984c1.547-1.929 1.407-3.686 1.361-4.317-1.367 0.083-2.948 0.978-3.849 2.077-0.992 1.179-1.575 2.638-1.45 4.282 1.477 0.119 2.826-0.679 3.937-2.042z"></path>
</symbol>
<symbol id="icon-robot" viewBox="0 0 32 32">
<path fill="#fff" style="fill: var(--color1, #fff)" d="M8.439 22.512c0 0.731 0.597 1.328 1.332 1.328h1.522v3.762c0 0.953 0.766 1.731 1.707 1.731 0.944 0 1.707-0.775 1.707-1.731v-3.765h2.657v3.762c0 0.953 0.766 1.731 1.707 1.731 0.944 0 1.707-0.775 1.707-1.731v-3.762h1.522c0.735 0 1.332-0.597 1.332-1.328v-12.349h-15.191v12.353zM19.601 3.759l1.403-2.031c0.081-0.119 0.063-0.278-0.047-0.356-0.109-0.075-0.266-0.038-0.347 0.081l-1.457 2.112c-0.96-0.378-2.029-0.587-3.151-0.587s-2.191 0.209-3.151 0.587l-1.457-2.109c-0.081-0.119-0.238-0.159-0.347-0.081-0.109 0.075-0.128 0.231-0.047 0.356l1.403 2.031c-2.232 1.037-3.795 3.003-3.995 5.3h15.191c-0.206-2.3-1.772-4.265-4.001-5.303zM12.796 6.962c-0.166 0-0.329-0.049-0.467-0.142s-0.246-0.224-0.31-0.377c-0.064-0.154-0.080-0.323-0.048-0.486s0.113-0.313 0.23-0.43c0.118-0.118 0.267-0.198 0.431-0.23s0.332-0.016 0.486 0.048c0.154 0.064 0.285 0.171 0.377 0.31s0.142 0.301 0.142 0.467c-0.001 0.223-0.089 0.436-0.247 0.594s-0.371 0.246-0.594 0.247zM19.31 6.962c-0.166 0-0.329-0.049-0.467-0.142s-0.246-0.224-0.31-0.377c-0.064-0.154-0.080-0.323-0.048-0.486s0.113-0.313 0.23-0.43c0.118-0.118 0.267-0.198 0.431-0.23s0.332-0.016 0.486 0.048 0.285 0.171 0.377 0.31c0.092 0.138 0.142 0.301 0.142 0.467-0.001 0.223-0.089 0.436-0.247 0.594s-0.371 0.246-0.594 0.247zM26.293 10.109c-0.944 0-1.707 0.775-1.707 1.731v6.762c0 0.953 0.766 1.731 1.707 1.731 0.944 0 1.707-0.775 1.707-1.731v-6.765c0.003-0.956-0.76-1.728-1.707-1.728zM5.707 10.109c-0.944 0-1.707 0.775-1.707 1.731v6.762c0 0.953 0.766 1.731 1.707 1.731 0.944 0 1.707-0.775 1.707-1.731v-6.765c0-0.956-0.766-1.728-1.707-1.728z"></path>
</symbol>
<symbol id="icon-down" viewBox="0 0 51 32">
<path fill="none" stroke="#fff" style="stroke: var(--color1, #fff)" stroke-linejoin="round" stroke-linecap="round" stroke-miterlimit="4" stroke-width="4.8" d="M48 4.8l-22.4 22.4-22.4-22.4"></path>
</symbol>
<symbol id="icon-complaints" viewBox="0 0 32 32">
<path d="M17 15.5h2v2h-2v-2z"></path>
<path d="M21 15.5h2v2h-2v-2z"></path>
<path d="M13 15.5h2v2h-2v-2z"></path>
<path d="M9 15.5h2v2h-2v-2z"></path>
<path d="M21.648 5.5h-11.297c-5.708 0-10.352 4.71-10.352 10.5s4.644 10.5 10.352 10.5h11.297c5.708 0 10.352-4.71 10.352-10.5s-4.644-10.5-10.352-10.5zM11.289 22.68h3.773v1.918h-3.773v-1.918zM16.938 22.68h3.773v1.918h-3.773v-1.918zM21.648 20.779h-11.297c-2.598 0-4.711-2.144-4.711-4.779s2.113-4.779 4.711-4.779h11.297c2.598 0 4.711 2.144 4.711 4.779s-2.113 4.779-4.711 4.779zM16.938 9.32v-1.918h3.773v1.918h-3.773zM15.063 9.32h-3.773v-1.918h3.773v1.918zM1.875 16c0-4.42 3.305-8.070 7.539-8.545v1.933c-3.189 0.463-5.648 3.252-5.648 6.612s2.459 6.149 5.648 6.612v1.933c-4.234-0.475-7.539-4.126-7.539-8.545zM22.586 24.545v-1.933c3.189-0.463 5.648-3.252 5.648-6.613s-2.459-6.149-5.648-6.612v-1.933c4.235 0.475 7.539 4.126 7.539 8.545s-3.305 8.070-7.539 8.545z"></path>
</symbol>
<symbol id="icon-player-reviews" viewBox="0 0 32 32">
<path d="M4 22h6v2h-6v-2z"></path>
<path d="M11 22h2v2h-2v-2z"></path>
<path d="M15 22h6v2h-6v-2z"></path>
<path d="M23 22h2v2h-2v-2z"></path>
<path d="M32 5h-28.234v3.819h-3.766v19.181h28.234v-3.819h3.766v-19.181zM5.641 6.902h24.484v7.738h-1.891v-5.821h-22.594v-1.918zM28.234 16.542h1.891v1.918h-1.891v-1.918zM26.359 26.098h-24.484v-15.377h24.484v15.377zM28.234 22.279v-1.918h1.891v1.918h-1.891z"></path>
<path d="M12 13h-8v6h8v-6zM10.006 17.006h-4.012v-2.011h4.012v2.011z"></path>
</symbol>
<symbol id="icon-casino-reviews" viewBox="0 0 32 32">
<path d="M11 27h2v2h-2v-2z"></path>
<path d="M29.296 24.208c-0.385-1.76-1.716-3.161-3.475-3.655l-5.101-1.433-0.428-2.129c1.381-1.154 2.267-2.923 2.267-4.902v-3.601c0.628-0.426 1.453-1.327 1.453-3.124 0.071-2.763-2.446-5.428-5.319-5.362-0.898 0-1.896 0.195-2.953 0.401-2.266 0.506-4.498 0.751-6.377-0.359-1.185 2.991-0.837 5.801 1.078 8.226v3.818c0 1.98 0.886 3.748 2.267 4.902l-0.428 2.129-5.101 1.433c-1.758 0.494-3.090 1.895-3.475 3.655l-1.704 7.792h29l-1.704-7.792zM16.5 27.089c-0.246-0.488-0.537-0.953-0.871-1.389l-0.617-0.806 1.487-1.892 1.487 1.892-0.617 0.806c-0.334 0.436-0.625 0.902-0.871 1.389zM14.109 26.828c0.736 0.962 1.209 2.107 1.373 3.297h-5.873v-8.305l0.549-0.154 3.951 5.162zM18.891 26.828l3.951-5.162 0.549 0.154v8.305h-5.873c0.164-1.19 0.637-2.336 1.373-3.297zM20.88 21.114l-1.705 2.227-1.201-1.528 2.012-0.95 0.894 0.251zM11.843 6.993c-1.003-1.289-1.438-2.905-1.215-4.449 1.802 0.415 3.738 0.038 5.482-0.303 0.963-0.188 1.872-0.365 2.583-0.365 1.851 0 3.415 1.597 3.415 3.487 0 0.287-0.032 0.525-0.083 0.724-0.667-1.116-2.069-1.771-3.456-1.662-1.267 1.579-3.257 2.578-5.326 2.567l-1.4 0zM12.345 8.868h0.898c2.311 0 4.518-0.915 6.132-2.525 0.733 0.167 1.281 0.816 1.281 1.588v4.158c0 2.435-1.864 4.416-4.155 4.416s-4.155-1.981-4.155-4.416v-3.22h0zM16.5 18.379c0.721 0 1.413-0.132 2.056-0.373l0.267 1.327-2.322 1.097-2.322-1.097 0.267-1.327c0.642 0.241 1.334 0.373 2.056 0.373zM13.015 20.863l2.012 0.95-1.201 1.528-1.705-2.227 0.894-0.251zM5.565 24.603c0.237-1.082 1.055-1.943 2.136-2.247l0.004-0.001v7.771h-3.348l1.208-5.522zM25.294 30.125v-7.771l0.004 0.001c1.081 0.304 1.899 1.165 2.136 2.247l1.208 5.522h-3.348z"></path>
</symbol>
<symbol id="icon-how-to-sign-up" viewBox="0 0 32 32">
<path d="M7 20l1.42-1.408 1.42 1.408-1.42 1.408-1.42-1.408z"></path>
<path d="M22 20l1.42-1.408 1.42 1.408-1.42 1.408-1.42-1.408z"></path>
<path d="M32 8.593v-6.593h-32v6.593h3.766v6.6l-1.658 0.94c-1.3 0.736-2.107 2.116-2.107 3.601s0.807 2.864 2.107 3.601l9.91 5.616c1.211 0.686 2.588 1.049 3.983 1.049s2.772-0.363 3.983-1.049l9.91-5.616c1.3-0.736 2.107-2.116 2.107-3.601s-0.807-2.864-2.107-3.601l-1.659-0.94v-6.6h3.766zM1.875 3.859h28.25v2.874h-28.25v-2.874zM19.983 10.518c-1.211-0.686-2.588-1.049-3.983-1.049s-2.772 0.363-3.983 1.049l-2.611 1.48v-3.404h13.188v3.404l-2.611-1.48zM5.641 8.593h1.891v4.467l-1.891 1.071v-5.538zM30.125 19.734c0 0.819-0.445 1.58-1.162 1.986l-9.91 5.616c-0.928 0.526-1.983 0.804-3.052 0.804s-2.124-0.278-3.052-0.804l-9.91-5.616c-0.717-0.406-1.162-1.167-1.162-1.986s0.445-1.58 1.162-1.986l9.91-5.616c0.928-0.526 1.983-0.804 3.052-0.804s2.124 0.278 3.052 0.804l9.91 5.616c0.717 0.406 1.162 1.167 1.162 1.986zM26.359 14.131l-1.891-1.071v-4.467h1.891v5.538z"></path>
<path d="M15.5 15c-2.932 1.862-4.513 3.647-4.5 5.491 0 1.732 1.329 3.141 2.962 3.141 0.21 0 0.418-0.024 0.62-0.070v1.438h1.835v-1.438c0.202 0.046 0.41 0.070 0.62 0.070 1.633 0 2.962-1.409 2.962-3.141 0.035-1.98-1.861-3.809-4.5-5.491zM17.038 21.685c-0.603 0.074-1.191-0.84-1.538-1.245-0.4 0.443-0.842 1.26-1.538 1.245-0.621 0-1.126-0.536-1.126-1.195 0-1.046 1.354-2.257 2.664-3.184 1.31 0.927 2.664 2.137 2.664 3.184 0 0.659-0.505 1.195-1.126 1.195z"></path>
</symbol>
<symbol id="icon-casino-mobile" viewBox="0 0 32 32">
<path stroke-linejoin="miter" stroke-linecap="butt" stroke-miterlimit="4" stroke-width="1.0323" d="M22.194 1.032h-12.387c-0.683 0.004-1.338 0.297-1.821 0.816s-0.756 1.222-0.76 1.956v24.392c0.003 0.734 0.276 1.437 0.76 1.956s1.138 0.812 1.821 0.816h12.387c0.683-0.004 1.338-0.297 1.821-0.816s0.756-1.222 0.76-1.956v-24.392c-0.003-0.734-0.276-1.437-0.76-1.956s-1.138-0.812-1.821-0.816zM8.258 6.576h15.484v18.848h-15.484v-18.848zM9.806 2.141h12.387c0.411 0 0.805 0.175 1.095 0.487s0.453 0.735 0.453 1.176v1.663h-15.484v-1.663c0-0.441 0.163-0.864 0.454-1.176s0.684-0.487 1.095-0.487zM22.194 29.859h-12.387c-0.411 0-0.804-0.175-1.095-0.487s-0.454-0.735-0.454-1.176v-1.663h15.484v1.663c0 0.441-0.163 0.864-0.453 1.176s-0.684 0.487-1.095 0.487z"></path>
</symbol>
<symbol id="icon-casino-app" viewBox="0 0 32 32">
<path d="M32 24.398v-22.398h-32v22.398h11.297v2.805c0 0.517-0.424 0.938-0.945 0.938h-1.883v1.859h15.062v-1.859h-1.883c-0.521 0-0.945-0.421-0.945-0.938v-2.805h11.297zM1.875 3.859h28.25v14.945h-28.25v-14.945zM13.008 28.141c0.105-0.293 0.164-0.609 0.164-0.938v-2.805h5.656v2.805c0 0.329 0.058 0.644 0.163 0.938h-5.983zM1.875 22.539v-1.875h28.25v1.875h-28.25z"></path>
<path d="M7 11l1.42-1.408 1.42 1.408-1.42 1.408-1.42-1.408z"></path>
<path d="M22 11l1.42-1.408 1.42 1.408-1.42 1.408-1.42-1.408z"></path>
<path d="M15.5 6c-2.932 1.862-4.513 3.647-4.5 5.49 0 1.732 1.329 3.141 2.962 3.141 0.21 0 0.418-0.024 0.62-0.070v1.438h1.835v-1.438c0.202 0.046 0.41 0.070 0.62 0.070 1.633 0 2.962-1.409 2.962-3.141 0.035-1.98-1.861-3.809-4.5-5.49zM17.038 12.685c-0.603 0.074-1.19-0.84-1.538-1.245-0.4 0.443-0.842 1.26-1.538 1.245-0.621 0-1.126-0.536-1.126-1.195 0-1.046 1.354-2.257 2.664-3.184 1.311 0.927 2.664 2.137 2.664 3.184 0 0.659-0.505 1.195-1.126 1.195z"></path>
</symbol>
<symbol id="icon-casing-vase" viewBox="0 0 24 32">
<path d="M9 26h6v2h-6v-2z"></path>
<path d="M15.495 6.427l-2.195-0.335-0.982-2.092h-1.635l-0.982 2.092-2.196 0.335-0.505 1.635 1.589 1.628-0.375 2.299 1.323 1.010 1.964-1.085 1.964 1.085 1.323-1.010-0.375-2.299 1.589-1.628-0.505-1.635zM12.679 10.402l-1.179-0.652-1.179 0.652 0.225-1.381-0.954-0.978 1.319-0.201 0.59-1.256 0.59 1.256 1.318 0.201-0.954 0.978 0.225 1.381z"></path>
<path d="M20.306 1.883v-1.883h-16.613v1.883h-3.693v5.585c0 2.948 2.205 5.382 5.023 5.675 0.617 0.971 1.423 1.805 2.364 2.449-0.094 1.58 0.541 3.172 1.823 4.154-0.105 1.049-0.564 2.070-1.282 2.849h-2.388v9.406h12.92v-9.406h-2.388c-0.719-0.779-1.178-1.801-1.283-2.851 1.209-0.904 1.925-2.524 1.823-4.152 0.942-0.643 1.748-1.478 2.364-2.449 2.817-0.293 5.023-2.726 5.023-5.675v-5.585h-3.694zM1.839 7.468v-3.71h1.854v4.794c0 0.832 0.119 1.636 0.339 2.397-1.293-0.606-2.194-1.938-2.194-3.481zM16.621 30.125h-9.241v-5.656h9.241v5.656zM13.803 22.594h-3.606c0.351-0.628 0.604-1.312 0.745-2.015 0.343 0.082 0.697 0.125 1.058 0.125 0.364 0 0.717-0.044 1.057-0.126 0.141 0.704 0.395 1.388 0.746 2.017zM12 18.828c-1.24 0.022-2.486-0.957-2.721-2.275 0.853 0.302 1.768 0.467 2.721 0.467s1.867-0.165 2.72-0.467c-0.253 1.295-1.377 2.274-2.72 2.274zM12 15.146c-3.566 0-6.467-2.958-6.467-6.594v-6.677h12.935v6.677c0 3.636-2.901 6.594-6.467 6.594zM22.161 7.468c0 1.543-0.901 2.875-2.194 3.481 0.22-0.76 0.339-1.565 0.339-2.397v-4.794h1.854v3.71z"></path>
</symbol>
<symbol id="icon-casino-bonuses" viewBox="0 0 32 32">
<path d="M8 24h17v2h-17v-2z"></path>
<path d="M9 18l1.42-1.408 1.42 1.408-1.42 1.408-1.42-1.408z"></path>
<path d="M20 18l1.42-1.408 1.42 1.408-1.42 1.408-1.42-1.408z"></path>
<path d="M12 16.5l3.5 4.5 3.5-4.5-3.5-4.5-3.5 4.5zM15.5 17.992l-1.16-1.492 1.16-1.492 1.16 1.492-1.16 1.492z"></path>
<path d="M32 12.266c0-1.542-1.265-2.797-2.82-2.797-1.539 0-2.793 1.228-2.819 2.748l-1.843 0.608c-1.409 0.465-2.96-0.129-3.689-1.412l-2.709-4.775c0.435-0.492 0.7-1.136 0.7-1.841 0-1.542-1.265-2.797-2.82-2.797s-2.82 1.255-2.82 2.797c0 0.705 0.265 1.349 0.7 1.841l-2.709 4.775c-0.728 1.284-2.28 1.877-3.689 1.412l-1.843-0.608c-0.027-1.52-1.28-2.748-2.819-2.748-1.555 0-2.82 1.255-2.82 2.797 0 1.408 1.055 2.576 2.423 2.768l1.137 5.638h-1.109v1.859h1.315v5.609h-1.315v1.859h27.1v-1.859h-1.315v-5.609h1.315v-1.859h-1.109l1.137-5.638c1.367-0.192 2.423-1.36 2.423-2.768zM29.18 11.328c0.521 0 0.945 0.421 0.945 0.938s-0.424 0.937-0.945 0.937c-0.521 0-0.945-0.421-0.945-0.937s0.424-0.938 0.945-0.938zM16 3.86c0.521 0 0.945 0.421 0.945 0.937s-0.424 0.937-0.945 0.937c-0.521 0-0.945-0.421-0.945-0.937s0.424-0.937 0.945-0.937zM1.875 12.266c0-0.517 0.424-0.938 0.945-0.938s0.945 0.421 0.945 0.938c0 0.517-0.424 0.937-0.945 0.937s-0.945-0.421-0.945-0.937zM26.359 28.141h-20.719v-5.609h20.719v5.609zM5.472 20.672l-1.211-6.003c0.303-0.179 0.569-0.413 0.785-0.688l1.844 0.609c2.149 0.736 4.769-0.188 5.915-2.265l2.708-4.773c0.158 0.027 0.321 0.043 0.487 0.043s0.329-0.015 0.487-0.043l2.708 4.773c1.167 2.068 3.671 2.997 5.915 2.265l1.844-0.609c0.216 0.275 0.482 0.509 0.785 0.688l-1.211 6.003h-21.057z"></path>
</symbol>
<symbol id="icon-play-rewiew" viewBox="0 0 32 32">
<path d="M26 7c1.654 0 3-1.271 3-2.833 0-2.322-3-4.167-3-4.167s-3 1.845-3 4.167c0 1.562 1.346 2.833 3 2.833zM26 2.576c0.523 0.552 1.006 1.211 1.006 1.591 0 0.524-0.451 0.95-1.006 0.95s-1.006-0.426-1.006-0.95c0-0.384 0.479-1.037 1.005-1.591z"></path>
<path d="M15.958 22.409h1.084c0.546 0 0.99 0.41 0.99 0.914s-0.444 0.914-0.99 0.914h-1.104c-0.527 0-0.955-0.395-0.955-0.882h-1.968c0 1.356 1.088 2.481 2.5 2.67v0.975h1.968v-0.977c1.422-0.198 2.516-1.333 2.516-2.701 0-1.506-1.327-2.731-2.958-2.731h-1.084c-0.546 0-0.99-0.41-0.99-0.914s0.444-0.914 0.99-0.914h1.059c0.546 0 0.991 0.41 0.991 0.915h1.968c0-1.36-1.082-2.491-2.492-2.698v-0.98h-1.968v0.977c-1.422 0.198-2.516 1.333-2.516 2.701 0 1.506 1.327 2.731 2.958 2.731z"></path>
<path d="M24.634 11.297c-0.050-2.952-1.767-4.813-4.196-5.891-0.237 0.402-0.386 0.885-0.817 1.231-0.248 0.185-0.417 0.167-0.609 0.078-0.304-0.141-0.46-0.287-0.119-1.646 0.576-3.131-1.856-4.28-3.672-5.070-0.171 1.317-0.006 2.511-1.461 3.492-1.791 0.956-1.582 2.312-1.457 3.122 0.106 0.69 0.116 0.904-0.341 1.248-0.099 0.074-0.33 0.248-0.862 0.001-0.693-0.357-0.872-0.694-1.322-1.117-1.474 1.183-2.35 2.714-2.407 4.551h-7.37v20.703h32v-20.703h-7.366zM9.876 9.33c0.867 0.527 2.102 0.866 3.212 0.030 1.375-1.033 1.182-2.284 1.067-3.031-0.083-0.564-0.174-0.841 0.487-1.183 1.025-0.547 1.602-1.44 1.923-2.206 0.004 0.005 0.009 0.009 0.013 0.014 0.485 0.513 0.646 1.056 0.495 1.66-0.157 0.625-0.293 1.237-0.234 1.856 0.084 0.893 0.563 1.566 1.384 1.947 0.934 0.442 2.028 0.246 2.818-0.531 1.078 0.792 1.708 2.057 1.717 3.411h-13.514c0.034-0.713 0.253-1.402 0.632-1.967zM23.531 20.308l-0.945 0.945v-4.317h2.055c0.283 0.801 0.919 1.437 1.72 1.72v5.981c-0.801 0.283-1.437 0.919-1.72 1.72h-2.055v-4.344l0.945 0.945 1.326-1.326-1.326-1.326zM9.416 21.256l-0.948-0.948-1.326 1.326 1.326 1.326 0.948-0.948v4.346h-2.056c-0.283-0.801-0.919-1.437-1.72-1.72v-5.981c0.801-0.283 1.437-0.919 1.72-1.72h2.056v4.319zM9.416 15.062h-3.77v0.938c0 0.52-0.423 0.943-0.943 0.943h-0.938v9.41h0.938c0.52 0 0.943 0.423 0.943 0.943v0.938h3.77v1.891h-7.542v-16.953h7.542v1.89zM20.711 30.125h-9.419v-16.953h9.419v16.953zM30.125 30.125h-7.539v-1.891h3.77v-0.938c0-0.52 0.423-0.943 0.943-0.943h0.938v-9.41h-0.938c-0.52 0-0.943-0.423-0.943-0.943v-0.938h-3.77v-1.89h7.539v16.953z"></path>
</symbol>
<symbol id="icon-star-white" viewBox="0 0 33 32">
<path fill="#c3d5cf" style="fill: var(--color1, #c3d5cf); stroke: var(--color1, #c3d5cf)" stroke="#c3d5cf" stroke-linejoin="miter" stroke-linecap="butt" stroke-miterlimit="4" stroke-width="3.0968" d="M16.516 4.218l3.413 8.647 9.211 0.64-7.083 6.033 2.237 9.072-7.777-4.969-7.777 4.969 2.237-9.072-7.083-6.033 9.211-0.64 3.413-8.647z"></path>
</symbol>
<symbol id="icon-star-yellow" viewBox="0 0 33 32">
<path fill="#ffc512" style="fill: var(--color1, #ffc512); stroke: var(--color1, #ffc512)" stroke="#ffc512" stroke-linejoin="miter" stroke-linecap="butt" stroke-miterlimit="4" stroke-width="3.0968" d="M16.516 4.218l3.413 8.647 9.211 0.64-7.083 6.033 2.237 9.072-7.777-4.969-7.777 4.969 2.237-9.072-7.083-6.033 9.211-0.64 3.413-8.647z"></path>
</symbol>
<symbol id="icon-turn-right" viewBox="0 0 72 32">
<path d="M69.414 14.586c0.781 0.781 0.781 2.047 0 2.828l-12.728 12.728c-0.781 0.781-2.048 0.781-2.828 0s-0.781-2.047 0-2.828l11.314-11.314-11.314-11.314c-0.781-0.781-0.781-2.047 0-2.828s2.047-0.781 2.828 0l12.728 12.728zM0 14h68v4h-68v-4z"></path>
</symbol>
<symbol id="icon-turn-left" viewBox="0 0 72 32">
<path d="M2.586 14.586c-0.781 0.781-0.781 2.047 0 2.828l12.728 12.728c0.781 0.781 2.047 0.781 2.828 0s0.781-2.047 0-2.828l-11.314-11.314 11.314-11.314c0.781-0.781 0.781-2.047 0-2.828s-2.047-0.781-2.828 0l-12.728 12.728zM72 14h-68v4h68v-4z"></path>
</symbol>
<symbol id="icon-star-black" viewBox="0 0 34 32">
<path d="M16.661 1.249c0.128-0.393 0.684-0.393 0.812 0l3.33 10.249c0.057 0.176 0.221 0.295 0.406 0.295h10.777c0.413 0 0.585 0.529 0.251 0.772l-8.718 6.334c-0.15 0.109-0.212 0.301-0.155 0.477l3.33 10.249c0.128 0.393-0.322 0.72-0.657 0.477l-8.718-6.334c-0.15-0.109-0.352-0.109-0.502 0l-8.718 6.334c-0.334 0.243-0.784-0.084-0.657-0.477l3.33-10.249c0.057-0.176-0.005-0.368-0.155-0.477l-8.718-6.334c-0.334-0.243-0.163-0.772 0.251-0.772h10.777c0.185 0 0.349-0.119 0.406-0.295l3.33-10.249z"></path>
</symbol>
<symbol id="icon-email" viewBox="0 0 40 32">
<path d="M36 32h-32c-1.061 0-2.078-0.421-2.828-1.172s-1.172-1.768-1.172-2.828v-24.174c0.045-1.030 0.486-2.004 1.231-2.717s1.737-1.11 2.769-1.109h32c1.061 0 2.078 0.421 2.828 1.172s1.172 1.768 1.172 2.828v24c0 1.061-0.421 2.078-1.172 2.828s-1.768 1.172-2.828 1.172zM4 7.736v20.264h32v-20.264l-16 10.664-16-10.664zM5.6 4l14.4 9.6 14.4-9.6h-28.8z"></path>
</symbol>
<symbol id="icon-phone" viewBox="0 0 32 32">
<path stroke-linejoin="round" stroke-linecap="round" stroke-miterlimit="4" stroke-width="2.9091" d="M13.897 7.623l-4.921-5.68c-0.567-0.655-1.607-0.652-2.266 0.009l-4.047 4.054c-1.204 1.206-1.549 2.996-0.852 4.432 4.162 8.618 11.113 15.577 19.725 19.752 1.434 0.697 3.223 0.352 4.427-0.854l4.084-4.091c0.662-0.662 0.663-1.707 0.003-2.275l-5.702-4.894c-0.596-0.512-1.523-0.445-2.121 0.154l-1.984 1.987c-0.102 0.106-0.235 0.177-0.381 0.2s-0.294-0.002-0.424-0.072c-3.243-1.867-5.933-4.561-7.796-7.806-0.070-0.13-0.095-0.279-0.072-0.424s0.093-0.28 0.2-0.381l1.978-1.98c0.599-0.602 0.665-1.533 0.147-2.131v0.001z"></path>
</symbol>
<symbol id="icon-chat" viewBox="0 0 32 32">
<path d="M6 24.356v7.644l12.554-7.644h9.446c2.206 0 4-1.821 4-4.059v-16.237c0-2.239-1.794-4.059-4-4.059h-24c-2.206 0-4 1.821-4 4.059v16.237c0 2.239 1.794 4.059 4 4.059h2zM4 4.059h24v16.237h-10.554l-7.446 4.534v-4.534h-6v-16.237z"></path>
</symbol>
<symbol id="icon-google-maps" viewBox="0 0 23 32">
<path fill="#34a853" style="fill: var(--color1, #34a853)" d="M6.667 23.923c0.916 1.15 1.75 2.361 2.495 3.624 0.636 1.188 0.902 1.994 1.367 3.426 0.285 0.791 0.543 1.027 1.097 1.027 0.604 0 0.878-0.402 1.090-1.023 0.44-1.352 0.785-2.384 1.329-3.359 1.068-1.883 2.395-3.555 3.698-5.163 0.353-0.455 2.635-3.106 3.662-5.198 0 0 1.263-2.298 1.263-5.507 0-3.002-1.245-5.084-1.245-5.084l-3.585 0.946-2.177 5.648-0.539 0.779-0.108 0.141-0.143 0.177-0.251 0.282-0.359 0.354-1.939 1.556-4.847 2.757-0.806 4.618z"></path>
<path fill="#fbbc04" style="fill: var(--color2, #fbbc04)" d="M1.333 15.725c1.194 2.619 3.498 4.921 5.056 6.942l8.277-9.412c0 0-1.166 1.464-3.281 1.464-2.356 0-4.26-1.806-4.26-4.084 0-1.562 0.979-2.635 0.979-2.635l-5.619 1.445-1.152 6.28z"></path>
<path fill="#4285f4" style="fill: var(--color3, #4285f4)" d="M14.731 0c2.782 0.884 5.163 2.739 6.603 5.474l-6.694 7.859c0 0 0.99-1.134 0.99-2.746 0-2.42-2.069-4.228-4.303-4.228-2.113 0-3.327 1.518-3.327 1.518v-4.951l6.731-2.925z"></path>
<path fill="#1a73e8" style="fill: var(--color4, #1a73e8)" d="M2.667 3.793c1.655-1.869 4.568-3.793 8.584-3.793 1.948 0 3.416 0.483 3.416 0.483l-6.705 7.517h-4.751l-0.544-4.207z"></path>
<path fill="#ea4335" style="fill: var(--color5, #ea4335)" d="M1.117 16c0 0-1.117-2.071-1.117-5.071 0-2.835 1.164-5.314 2.658-6.929l5.342 4.256-6.883 7.744z"></path>
</symbol>
<symbol id="icon-adress" viewBox="0 0 26 32">
<path stroke-linejoin="round" stroke-linecap="round" stroke-miterlimit="4" stroke-width="2.9091" d="M13.091 17.455c2.41 0 4.364-1.954 4.364-4.364s-1.954-4.364-4.364-4.364c-2.41 0-4.364 1.954-4.364 4.364s1.954 4.364 4.364 4.364z"></path>
<path stroke-linejoin="round" stroke-linecap="round" stroke-miterlimit="4" stroke-width="2.9091" d="M13.091 1.455c-3.086 0-6.046 1.226-8.228 3.408s-3.408 5.142-3.408 8.228c0 2.752 0.585 4.553 2.182 6.545l9.455 10.909 9.455-10.909c1.597-1.993 2.182-3.793 2.182-6.545 0-3.086-1.226-6.046-3.408-8.228s-5.142-3.408-8.228-3.408v0z"></path>
</symbol>
<symbol id="icon-down-down" viewBox="0 0 33 32">
<path d="M6.321 9.661c0.39-0.397 0.999-0.434 1.429-0.108l0.123 0.108 8.793 8.97 8.793-8.97c0.39-0.397 0.999-0.434 1.429-0.108l0.123 0.108c0.39 0.397 0.425 1.019 0.106 1.458l-0.106 0.126-9.569 9.761c-0.39 0.397-0.999 0.434-1.429 0.108l-0.123-0.108-9.569-9.761c-0.429-0.437-0.429-1.146 0-1.583z"></path>
</symbol>
<symbol id="icon-up" viewBox="0 0 33 32">
<path d="M27.012 21.672c-0.39 0.397-0.999 0.434-1.429 0.108l-0.123-0.108-8.793-8.97-8.793 8.97c-0.39 0.397-0.999 0.434-1.429 0.108l-0.123-0.108c-0.39-0.397-0.425-1.019-0.106-1.457l0.106-0.126 9.569-9.761c0.39-0.397 0.999-0.434 1.429-0.108l0.123 0.108 9.569 9.761c0.429 0.437 0.429 1.146 0 1.583z"></path>
</symbol>4
<symbol id="icon-triangle" viewBox="0 0 30 32">
<path fill="#f04c44" style="fill: var(--color1, #f04c44)" d="M1.358 32c-0.36 0-0.705-0.14-0.96-0.391s-0.398-0.589-0.398-0.943v-29.334c0-0.232 0.062-0.459 0.178-0.661s0.285-0.369 0.488-0.487c0.203-0.118 0.434-0.182 0.67-0.185s0.469 0.053 0.675 0.165l27.152 14.667c0.213 0.115 0.39 0.284 0.514 0.49s0.189 0.44 0.189 0.678-0.065 0.473-0.189 0.678c-0.124 0.205-0.301 0.375-0.514 0.49l-27.152 14.667c-0.2 0.108-0.426 0.165-0.654 0.165z"></path>
</symbol>
<symbol id="icon-tringle-white" viewBox="0 0 28 32">
<path fill="#fcfcfc" style="fill: var(--color1, #fcfcfc)" d="M1.261 32c-0.334 0-0.655-0.14-0.891-0.391s-0.369-0.589-0.369-0.943v-29.334c0-0.232 0.057-0.459 0.166-0.661s0.265-0.369 0.453-0.487c0.189-0.118 0.403-0.182 0.622-0.185s0.435 0.053 0.627 0.165l25.212 14.667c0.198 0.115 0.362 0.284 0.477 0.49s0.175 0.44 0.175 0.678c0 0.239-0.061 0.473-0.175 0.678s-0.28 0.375-0.477 0.49l-25.212 14.667c-0.186 0.108-0.395 0.165-0.608 0.165z"></path>
</symbol>
</defs>
</svg>
